<?xml version="1.0" standalone="no"?>
<!DOCTYPE svg PUBLIC "-//W3C//DTD SVG 20010904//EN"
 "http://www.w3.org/TR/2001/REC-SVG-20010904/DTD/svg10.dtd">
<svg version="1.0" xmlns="http://www.w3.org/2000/svg"
 width="400.000000pt" height="400.000000pt" viewBox="0 0 400.000000 400.000000"
 preserveAspectRatio="xMidYMid meet">

<g transform="translate(0.000000,400.000000) scale(0.100000,-0.100000)"
fill="#000000" stroke="none">
<path d="M1140 3475 c-25 -19 -61 -46 -80 -59 -19 -13 -51 -38 -70 -56 -19
-18 -50 -43 -67 -57 -20 -15 -33 -34 -33 -48 0 -22 37 -79 81 -125 14 -14 40
-47 59 -74 19 -27 45 -59 58 -73 12 -13 20 -28 17 -34 -3 -5 -31 -16 -61 -25
-59 -17 -72 -41 -25 -46 l29 -3 -32 -55 c-88 -149 -102 -331 -37 -499 11 -29
22 -56 25 -59 3 -2 -1 -17 -9 -33 -8 -15 -15 -35 -15 -44 0 -9 -24 -45 -54
-80 -53 -63 -68 -96 -100 -225 l-13 -55 -91 -45 c-50 -25 -107 -61 -127 -80
-42 -40 -165 -201 -188 -245 -10 -21 -30 -36 -65 -49 -68 -27 -89 -43 -74 -58
9 -9 18 -9 37 0 40 18 44 15 38 -28 -9 -64 11 -48 56 45 23 47 46 85 51 85 4
0 11 -18 15 -41 5 -30 11 -39 23 -37 11 2 16 11 14 23 -2 11 -5 46 -8 77 -4
56 -3 58 44 110 81 91 124 127 185 158 81 40 95 39 102 -7 10 -64 56 -172 93
-221 l35 -46 -24 -15 c-159 -104 -289 -372 -289 -595 0 -59 21 -181 38 -221
35 -84 67 -130 139 -202 45 -46 87 -83 94 -83 7 0 20 -6 28 -14 9 -8 49 -31
89 -50 39 -20 72 -37 72 -39 0 -1 -29 -2 -64 -1 -104 3 -156 -6 -156 -26 0
-33 42 -39 300 -39 139 -1 255 -3 259 -6 8 -5 59 -4 571 4 354 6 375 7 378 25
2 10 0 22 -5 27 -8 8 -148 24 -200 22 -13 -1 -23 3 -23 8 0 5 5 9 11 9 19 0
82 32 151 77 91 61 135 121 208 288 28 63 40 124 46 238 6 94 3 135 -11 205
-17 82 -53 174 -74 186 -15 10 -41 67 -41 91 0 12 -13 40 -28 61 -35 48 -68
111 -77 144 -3 14 -8 95 -11 180 -5 158 -16 214 -57 295 -11 22 -28 47 -38 56
-24 21 -17 62 23 137 15 30 28 62 28 71 0 36 30 59 117 86 48 15 95 30 103 33
8 3 22 7 30 8 8 2 58 15 110 29 160 45 142 47 227 -36 41 -41 104 -111 139
-157 56 -72 63 -85 53 -103 -6 -12 -13 -50 -16 -85 -4 -52 -2 -64 10 -64 10 0
16 17 21 60 4 33 11 60 16 60 16 0 32 -40 26 -68 -3 -15 -7 -56 -8 -92 -1 -44
-7 -76 -20 -97 -18 -30 -24 -33 -68 -33 -31 0 -55 -6 -69 -17 l-22 -18 25 -49
c20 -39 24 -59 19 -93 -10 -74 31 -90 90 -35 15 14 27 22 28 16 0 -5 1 -54 1
-109 l-1 -100 -32 3 c-51 6 -77 19 -110 57 -17 19 -40 35 -50 35 -25 0 -24 -6
6 -42 27 -32 30 -43 15 -53 -5 -3 -10 -14 -10 -24 0 -10 -9 -21 -20 -24 -41
-11 -53 -98 -19 -141 17 -21 29 -26 65 -26 74 0 109 55 80 125 -26 61 -22 68
26 60 64 -11 73 -22 97 -104 12 -42 30 -103 40 -136 24 -80 20 -149 -10 -181
-29 -31 -34 -30 -55 5 -19 32 -38 41 -99 47 -69 6 -80 12 -139 70 -42 40 -61
53 -69 45 -8 -8 -5 -19 11 -41 l23 -30 -24 0 c-31 0 -46 -19 -54 -64 -3 -21
-14 -41 -24 -47 -10 -5 -26 -23 -34 -39 -19 -36 -6 -113 22 -142 25 -24 93
-34 130 -19 59 24 69 127 19 180 -34 36 -37 91 -4 91 12 0 30 -7 39 -16 12
-11 44 -18 89 -22 64 -4 71 -7 89 -35 17 -27 18 -33 4 -53 -13 -20 -13 -30 2
-86 9 -35 20 -70 23 -78 3 -8 6 -17 6 -20 1 -3 4 -9 7 -15 4 -5 3 -39 -2 -74
-6 -39 -5 -78 0 -100 6 -20 13 -64 17 -98 6 -54 4 -63 -9 -63 -9 0 -21 -9 -27
-19 -10 -19 -12 -19 -39 -3 -25 14 -31 14 -46 2 -16 -13 -16 -35 0 -72 5 -14
2 -18 -13 -18 -12 0 -23 -4 -26 -9 -7 -10 -58 -23 -108 -26 -21 -1 -47 -3 -58
-4 -26 -1 -26 -27 0 -34 28 -7 149 12 183 29 16 8 42 14 58 14 41 0 48 25 15
51 -36 28 -25 37 12 10 40 -28 76 -29 67 -1 -5 15 -2 20 10 20 9 0 19 -9 22
-20 8 -30 37 -24 50 10 6 17 19 30 27 30 14 0 15 -4 6 -21 -7 -11 -9 -28 -6
-36 6 -14 9 -14 26 2 29 27 37 10 12 -25 -42 -56 -27 -66 116 -73 91 -5 112
-3 112 8 0 21 -11 24 -106 29 -49 3 -88 8 -87 11 19 41 33 79 33 86 0 5 -11
14 -24 20 -13 6 -29 22 -35 36 -8 17 -18 23 -33 21 -21 -3 -23 2 -25 44 -1 25
-9 63 -18 85 -9 21 -18 68 -20 104 -4 60 -34 193 -50 219 -3 5 12 37 34 71 25
38 43 79 47 108 7 51 52 111 65 89 5 -8 -2 -24 -19 -41 -37 -39 -39 -113 -3
-151 35 -37 91 -52 129 -35 42 18 56 48 50 109 -4 41 -11 56 -36 78 -45 40
-46 79 -6 171 28 66 38 78 71 93 54 24 73 23 73 -5 0 -16 -9 -28 -25 -35 -46
-21 -58 -94 -27 -156 39 -79 171 -72 202 9 12 33 -4 84 -39 121 -26 27 -30 39
-28 80 l2 49 -35 1 c-19 0 -47 -3 -61 -7 -26 -7 -27 -6 -25 40 1 63 -16 67
-31 7 -12 -50 -46 -96 -70 -96 -7 0 -13 -8 -13 -17 0 -10 -9 -31 -20 -48 -11
-16 -20 -37 -20 -47 0 -16 -54 -68 -71 -68 -5 0 -18 -9 -29 -20 -26 -26 -37
-25 -45 3 -3 12 -10 31 -16 42 -26 57 -89 250 -90 278 -2 71 3 167 9 164 96
-49 113 -43 94 29 -7 26 -11 47 -10 48 36 20 88 58 88 65 0 16 -26 30 -74 38
-44 7 -49 11 -62 48 -18 52 -9 141 13 124 10 -9 17 -9 24 -2 12 12 0 42 -37
86 -35 42 -32 58 8 46 45 -12 58 -11 58 5 0 7 -15 19 -32 26 -18 6 -41 16 -50
21 -10 5 -23 9 -30 9 -12 0 -90 91 -114 133 -20 36 -179 190 -209 202 -25 11
-43 10 -110 -7 -44 -10 -89 -23 -100 -28 -11 -5 -51 -16 -90 -24 -38 -9 -95
-25 -125 -36 -30 -11 -58 -20 -62 -20 -4 0 -7 30 -6 68 1 67 -3 96 -24 182
-12 53 -60 160 -70 160 -5 0 -8 5 -8 11 0 17 -68 90 -131 141 -61 50 -168 105
-265 137 -79 26 -303 46 -364 32 -24 -5 -47 -8 -49 -5 -3 2 12 21 32 42 20 21
37 43 37 49 0 29 -24 21 -61 -21 -23 -25 -44 -46 -48 -46 -11 0 -26 34 -51
115 -24 79 -26 84 -69 178 -21 45 -37 67 -49 67 -9 0 -37 -16 -62 -35z m170
-291 c0 -8 7 -28 14 -43 15 -27 14 -29 -27 -64 -72 -61 -100 -82 -126 -92 -22
-10 -28 -7 -59 27 -41 46 -42 45 72 126 107 76 126 82 126 46z m395 -95 c50
-6 95 -15 100 -19 6 -4 21 -11 35 -15 93 -29 208 -97 277 -163 44 -43 123
-155 123 -176 0 -6 4 -16 9 -21 14 -17 30 -99 36 -186 5 -71 2 -96 -19 -164
-35 -114 -56 -152 -125 -223 -46 -47 -82 -72 -139 -99 -104 -48 -121 -52 -237
-59 -55 -3 -105 -7 -112 -9 -18 -6 -179 22 -256 44 -37 11 -79 29 -93 40 -15
12 -33 21 -41 21 -34 0 -158 113 -204 185 -27 42 -54 104 -76 170 -5 17 -9 73
-9 125 1 74 7 110 26 165 13 39 27 72 30 75 3 3 22 28 41 55 18 28 39 53 44
56 6 4 30 23 55 43 94 77 177 131 220 144 53 15 164 30 200 26 14 -2 66 -9
115 -15z m-609 -948 l72 -68 -9 -44 c-4 -24 -8 -47 -9 -51 -1 -32 -80 44 -110
106 -16 34 -29 126 -17 126 1 0 34 -31 73 -69z m-91 -68 c31 -61 75 -113 118
-140 129 -81 349 -130 542 -118 109 6 250 29 270 44 5 4 31 15 57 25 25 9 52
24 58 32 37 44 48 -13 53 -261 4 -235 15 -309 53 -361 28 -39 96 -63 120 -43
9 7 33 12 54 10 30 -2 41 2 50 18 16 31 42 25 70 -17 65 -98 92 -192 95 -332
1 -58 -1 -109 -5 -115 -4 -5 -10 -28 -14 -50 -13 -81 -19 -101 -62 -193 -25
-53 -53 -92 -104 -142 -38 -39 -75 -70 -81 -70 -7 0 -20 -6 -28 -14 -38 -34
-307 -109 -436 -122 -93 -10 -359 -11 -450 -2 -242 25 -506 170 -604 333 -55
90 -81 182 -83 288 -1 51 2 108 7 127 5 19 9 40 10 45 2 20 33 111 52 150 54
115 159 243 220 266 21 8 29 3 62 -31 38 -40 81 -53 81 -26 0 8 -4 16 -9 18
-30 11 -162 146 -186 189 -31 58 -55 138 -55 187 0 35 -3 33 115 77 74 28 87
50 24 43 -37 -4 -76 -18 -132 -46 -10 -5 1 81 15 118 12 32 88 150 97 150 4 0
15 -17 26 -37z m1135 -33 c-27 -34 -68 -66 -147 -114 -9 -5 -13 2 -13 23 0 17
5 31 11 31 21 0 96 41 134 74 22 19 42 33 44 31 2 -2 -11 -22 -29 -45z m87 13
c3 -10 12 -25 20 -34 7 -9 11 -23 7 -32 -8 -23 -103 -89 -119 -84 -27 11 -22
44 12 83 19 21 39 49 44 62 10 26 27 29 36 5z m-1002 -14 c4 -5 17 -14 28 -20
12 -5 29 -13 37 -18 36 -21 113 -47 163 -56 32 -5 37 -9 37 -34 0 -15 -6 -34
-12 -43 -12 -13 -24 -12 -118 12 -180 46 -186 51 -167 133 9 37 20 46 32 26z
m713 -115 c-4 -30 -42 -47 -150 -64 -69 -10 -261 -14 -270 -5 -3 3 0 20 5 38
l10 32 136 0 c129 1 218 8 229 20 3 3 14 5 24 5 15 0 19 -6 16 -26z m348 -10
c2 -10 5 -48 7 -82 3 -51 1 -65 -12 -70 -9 -3 -36 -18 -60 -34 -65 -41 -81
-38 -82 15 0 23 -2 55 -4 70 -4 31 4 41 80 91 55 37 67 39 71 10z m879 -97
c16 -24 28 -32 49 -32 40 0 43 -18 5 -32 -30 -12 -31 -14 -25 -52 6 -40 6 -40
-19 -31 -14 5 -36 17 -50 26 -24 16 -26 15 -57 -20 -41 -46 -52 -46 -45 4 3
27 -1 50 -14 75 -10 19 -19 37 -19 39 0 2 23 6 52 8 38 4 57 11 68 26 21 29
32 27 55 -11z m-864 -207 l4 -75 -65 -32 c-94 -47 -97 -46 -103 40 -9 113 -7
118 44 132 24 6 58 18 74 27 28 15 30 15 36 -1 4 -9 8 -50 10 -91z m73 -184
c25 -38 46 -70 46 -72 0 -15 -44 1 -64 22 -15 17 -30 25 -40 21 -14 -6 -14
-12 6 -51 12 -25 19 -48 15 -52 -8 -9 -70 44 -79 67 -4 11 -12 19 -18 19 -19
0 -22 -28 -5 -60 20 -38 14 -48 -18 -31 -31 16 -53 56 -62 109 -6 39 -5 42 17
42 12 0 50 13 83 29 33 16 63 29 66 28 4 -1 28 -33 53 -71z m614 -88 c6 -6 12
-23 12 -39 0 -41 -40 -60 -78 -38 -27 15 -33 47 -17 87 5 15 59 8 83 -10z
m642 2 c0 -5 -2 -10 -4 -10 -3 0 -8 5 -11 10 -3 6 -1 10 4 10 6 0 11 -4 11
-10z m27 -80 c66 -40 51 -122 -23 -128 -31 -2 -44 2 -61 20 -34 38 -37 74 -9
103 30 30 51 31 93 5z m-282 -129 c3 -5 1 -12 -5 -16 -5 -3 -10 1 -10 9 0 18
6 21 15 7z m44 -92 c54 -54 32 -119 -41 -119 -26 0 -56 30 -71 73 -12 34 25
74 70 76 6 1 25 -13 42 -30z m-599 -24 c0 -8 -4 -15 -10 -15 -5 0 -10 7 -10
15 0 8 5 15 10 15 6 0 10 -7 10 -15z m40 -95 c32 -32 30 -85 -3 -113 -25 -22
-73 -16 -93 11 -23 31 -27 82 -8 103 23 25 78 25 104 -1z m290 -34 c0 -3 -4
-8 -10 -11 -5 -3 -10 -1 -10 4 0 6 5 11 10 11 6 0 10 -2 10 -4z m40 -276 c0
-16 -5 -30 -10 -30 -6 0 -9 14 -8 30 1 17 6 30 10 30 4 0 8 -13 8 -30z"/>
<path d="M2131 2367 c-28 -28 1 -74 39 -62 16 5 20 14 18 32 -3 29 -39 48 -57
30z"/>
<path d="M1870 2221 c-14 -4 -26 -15 -28 -25 -4 -16 0 -18 29 -12 39 7 54 20
45 35 -8 12 -10 12 -46 2z"/>
<path d="M1491 2112 c-7 -14 -6 -25 5 -40 19 -27 36 -28 57 -4 21 23 21 27 1
46 -21 21 -51 20 -63 -2z"/>
<path d="M1876 1761 c-14 -15 -15 -24 -6 -40 13 -25 33 -27 54 -5 19 19 20 36
4 52 -17 17 -32 15 -52 -7z"/>
<path d="M1892 1604 c-27 -19 -28 -40 -2 -54 28 -15 55 -5 68 25 10 21 8 26
-8 35 -25 13 -32 13 -58 -6z"/>
<path d="M1904 1425 c-8 -21 2 -44 22 -52 18 -7 54 28 54 53 0 20 -69 19 -76
-1z"/>
<path d="M2040 1330 c-36 -28 -183 -72 -274 -83 -17 -2 -32 -9 -34 -15 -6 -18
45 -25 96 -12 139 35 164 43 208 66 27 14 52 28 56 30 10 7 -2 34 -16 34 -6 0
-22 -9 -36 -20z"/>
<path d="M2680 226 c0 -19 14 -28 34 -20 25 10 19 34 -9 34 -15 0 -25 -6 -25
-14z"/>
</g>
</svg>
