<?xml version="1.0" standalone="no"?>
<!DOCTYPE svg PUBLIC "-//W3C//DTD SVG 20010904//EN"
 "http://www.w3.org/TR/2001/REC-SVG-20010904/DTD/svg10.dtd">
<svg version="1.0" xmlns="http://www.w3.org/2000/svg"
     width="100%" height="100%" 
     viewBox="0 250 400 150"
     preserveAspectRatio="xMidYMid meet">

<g transform="translate(0.000000,400.000000) scale(0.100000,-0.100000)"
fill="#000000" stroke="none">
<path d="M775 1249 c-88 -12 -180 -44 -268 -92 -92 -49 -196 -137 -223 -187
-11 -19 -31 -53 -45 -75 -37 -58 -68 -168 -71 -255 -3 -99 26 -180 88 -245 41
-42 89 -70 219 -125 l30 -13 -25 -7 c-14 -5 -37 -11 -52 -14 -48 -11 -34 -34
25 -40 76 -9 994 -2 1003 7 15 15 -16 30 -71 35 -30 2 -55 8 -55 12 0 4 21 15
48 25 50 19 156 92 177 122 64 91 70 113 69 238 -1 109 -4 128 -33 204 -37 99
-57 130 -125 194 -62 59 -142 112 -216 144 -30 13 -63 28 -72 33 -10 6 -26 10
-35 10 -10 1 -43 9 -73 20 -60 21 -183 25 -295 9z m310 -50 c116 -28 251 -96
327 -165 79 -72 107 -112 141 -194 70 -174 58 -315 -36 -432 -17 -21 -36 -38
-42 -38 -7 0 -20 -9 -30 -20 -21 -24 -125 -63 -225 -84 -80 -18 -456 -25 -535
-11 -114 20 -284 76 -345 113 -54 33 -100 94 -120 159 -24 78 -25 129 -5 208
47 177 147 304 310 393 178 96 361 119 560 71z"/>
<path d="M3195 1179 c-27 -10 -57 -19 -65 -19 -9 0 -31 -8 -50 -18 -19 -9 -54
-24 -78 -31 -24 -8 -45 -18 -47 -21 -5 -8 62 -137 76 -145 15 -10 40 -78 32
-86 -5 -4 -30 -9 -57 -11 -55 -3 -79 -28 -27 -28 38 0 40 -18 5 -49 -14 -12
-40 -52 -57 -89 -29 -61 -32 -75 -32 -168 l0 -101 45 -74 c32 -52 56 -80 83
-94 45 -25 47 -37 5 -33 -24 2 -33 -1 -36 -13 -3 -15 13 -18 120 -24 194 -10
621 -2 625 12 3 7 -10 16 -29 21 l-33 9 26 13 c51 24 114 131 128 216 16 108
-7 207 -71 292 -51 69 -91 94 -217 136 l-104 35 37 15 c20 8 36 20 36 25 0 17
-41 12 -89 -9 -24 -11 -49 -20 -56 -20 -13 0 -20 38 -31 180 -3 41 -10 80 -16
87 -15 18 -64 15 -123 -8z m120 -228 c1 -23 -4 -45 -9 -49 -6 -3 -51 -14 -101
-23 -97 -18 -115 -14 -115 26 0 18 11 27 53 43 65 26 149 50 161 48 6 -1 10
-21 11 -45z m156 -90 c134 -34 232 -95 286 -178 20 -31 43 -120 43 -170 0
-110 -59 -226 -132 -261 -56 -26 -85 -31 -233 -41 -271 -18 -401 25 -476 157
-86 153 -19 366 143 452 21 11 48 20 60 20 13 1 57 9 98 19 98 25 122 25 211
2z"/>
<path d="M2195 1083 c-46 -11 -143 -46 -191 -68 -28 -14 -82 -30 -119 -37 -84
-16 -125 -49 -125 -100 0 -19 5 -39 12 -46 9 -9 7 -17 -8 -34 -26 -29 -49 -67
-57 -93 -31 -104 -33 -123 -26 -191 10 -90 53 -177 108 -219 48 -36 50 -45 12
-45 -36 0 -48 -25 -19 -41 15 -8 163 -13 477 -16 392 -3 459 -2 476 11 28 20
8 40 -47 45 -5 1 9 18 30 39 45 45 82 119 91 182 6 42 -8 171 -25 215 -38 105
-103 186 -178 223 -38 19 -46 28 -46 51 0 33 -58 93 -112 116 -36 14 -203 20
-253 8z m183 -31 c7 -5 15 -25 19 -45 l6 -37 -92 0 c-90 0 -91 0 -91 24 0 13
-3 31 -6 39 -4 11 2 17 18 20 41 8 133 7 146 -1z m106 -34 c19 -18 37 -43 41
-55 6 -21 3 -23 -27 -23 -41 0 -63 13 -64 38 -1 11 -4 31 -8 46 -9 37 16 34
58 -6z m-296 -20 c3 -30 0 -38 -14 -38 -9 0 -59 -19 -111 -41 -106 -47 -123
-44 -104 13 10 29 20 38 69 57 31 13 71 29 87 37 49 23 70 15 73 -28z m-263
-95 c-3 -52 -14 -61 -76 -62 -91 -2 -70 76 26 100 52 12 53 12 50 -38z m476
26 c25 -13 60 -91 65 -144 2 -22 5 -107 8 -188 4 -108 10 -158 22 -183 20 -42
47 -59 72 -45 10 6 28 7 40 4 16 -4 22 -1 22 11 0 12 9 16 35 16 25 0 37 6 46
21 14 27 3 84 -23 119 -14 20 -24 58 -33 133 -7 58 -16 110 -20 117 -13 21
-24 70 -15 70 14 0 62 -50 92 -97 41 -62 71 -184 65 -263 -7 -109 -67 -200
-159 -241 -50 -22 -67 -23 -322 -27 -285 -4 -367 3 -417 39 -15 10 -29 19 -32
19 -2 0 -20 15 -40 33 -53 49 -89 129 -94 212 -5 64 -2 80 27 149 40 96 66
122 134 131 28 3 92 25 141 47 149 67 182 76 278 77 49 1 97 -4 108 -10z m148
-35 c32 -27 41 -54 17 -54 -7 0 -28 -3 -45 -6 -28 -6 -32 -4 -46 29 -8 20 -15
41 -15 47 0 20 59 10 89 -16z m55 -116 c14 -71 11 -78 -42 -78 -48 0 -48 0
-59 42 -14 51 -5 65 40 70 46 5 54 0 61 -34z m21 -135 c4 -21 9 -46 11 -55 6
-20 -51 -48 -98 -48 l-29 0 3 63 3 62 40 6 c22 3 45 7 52 8 7 0 15 -16 18 -36z
m37 -126 c9 -7 18 -28 20 -47 3 -32 1 -35 -27 -38 -20 -2 -26 0 -17 6 11 7 10
12 -3 26 -22 21 -38 11 -24 -15 14 -27 1 -39 -16 -16 -16 22 -45 12 -45 -16 0
-19 -2 -20 -15 -7 -8 9 -17 30 -21 47 -6 29 -3 34 22 44 30 12 82 26 99 28 6
0 17 -5 27 -12z"/>
</g>
</svg>
