<?xml version="1.0" standalone="no"?>
<!DOCTYPE svg PUBLIC "-//W3C//DTD SVG 20010904//EN"
 "http://www.w3.org/TR/2001/REC-SVG-20010904/DTD/svg10.dtd">
<svg version="1.0" xmlns="http://www.w3.org/2000/svg"
 width="100%" height="100%" viewBox="0 100 400 300"
 preserveAspectRatio="xMidYMid meet">

<g transform="translate(0.000000,400.000000) scale(0.100000,-0.100000)"
fill="#000000" stroke="none">
<path d="M2595 2818 c-54 -17 -68 -23 -199 -89 -72 -35 -167 -91 -212 -124
-80 -59 -195 -134 -224 -146 -22 -10 -76 -72 -100 -116 -37 -69 -19 -161 41
-205 l28 -21 -6 -96 c-3 -53 -7 -97 -7 -98 -3 -3 -277 26 -295 31 -9 3 -37 7
-62 10 -25 3 -86 14 -134 25 -93 21 -117 37 -130 91 -6 24 -21 40 -37 40 -13
0 -9 -33 7 -64 9 -16 14 -31 12 -32 -3 -4 -53 10 -159 42 -69 21 -93 22 -93 5
0 -9 23 -22 60 -33 117 -35 118 -37 40 -62 -33 -10 -55 -23 -55 -32 0 -23 43
-17 108 17 l60 30 78 -17 c89 -18 76 -16 244 -44 69 -12 177 -26 240 -33 l115
-12 25 -75 c26 -77 52 -134 84 -182 18 -28 18 -28 -8 -37 -14 -6 -60 -27 -103
-47 -91 -44 -163 -50 -225 -20 -34 17 -58 15 -58 -3 0 -4 18 -16 40 -26 22
-10 40 -21 40 -24 0 -8 -50 -31 -67 -31 -22 0 -63 -23 -63 -36 0 -21 14 -23
45 -9 41 18 95 35 112 35 12 0 11 -7 -6 -36 -24 -40 -27 -74 -7 -74 8 0 30 34
50 75 20 41 41 75 47 75 6 0 39 12 73 26 33 14 72 31 86 36 14 6 32 14 40 19
35 21 43 20 78 -10 20 -18 56 -44 79 -59 23 -15 43 -32 43 -37 0 -6 -18 -29
-41 -50 -66 -66 -144 -223 -161 -330 -10 -63 -12 -220 -3 -234 3 -5 7 -28 10
-51 3 -23 19 -69 35 -102 17 -33 30 -64 30 -70 0 -14 88 -119 129 -154 44 -37
154 -106 199 -123 18 -8 31 -15 29 -18 -2 -2 -40 -6 -83 -8 -94 -6 -114 -12
-114 -30 0 -37 29 -38 695 -37 798 1 725 -1 725 17 0 35 -71 54 -242 64 -30 2
-20 16 20 30 117 42 292 197 346 307 16 32 33 67 37 76 5 10 9 87 9 173 0 141
-2 162 -26 230 -45 130 -90 199 -209 316 -97 96 -279 209 -361 225 -42 8 -42
17 -3 61 27 31 39 53 81 148 5 11 15 40 22 65 12 43 16 46 62 57 56 14 138 40
174 56 14 6 27 11 30 12 34 11 142 68 168 89 33 29 39 53 22 87 -8 15 -6 25
11 49 22 29 22 30 4 50 -10 11 -29 20 -42 20 -20 0 -23 5 -23 34 0 29 -5 36
-29 44 -45 16 -94 -4 -162 -67 -32 -30 -59 -60 -59 -65 0 -13 -72 -66 -113
-83 -22 -10 -29 -10 -32 0 -28 92 -38 118 -46 122 -5 4 -9 14 -9 24 0 30 -61
111 -114 152 -28 22 -56 44 -63 49 -7 6 -18 10 -26 10 -7 0 -17 3 -21 8 -4 4
-28 14 -54 23 -42 14 -49 20 -61 58 -7 24 -32 63 -55 86 -36 37 -49 44 -106
54 -76 12 -163 12 -205 -1z m42 -67 c-9 -34 -16 -40 -44 -46 -21 -4 -33 -12
-33 -22 0 -16 30 -15 125 5 77 16 87 -12 26 -70 -32 -30 -49 -38 -97 -43 -33
-4 -79 -14 -104 -22 -60 -20 -200 -115 -255 -174 -37 -40 -55 -50 -106 -64
-69 -17 -99 -13 -99 15 0 25 44 76 92 106 39 25 51 54 22 54 -9 0 -34 -15 -57
-33 -30 -23 -50 -32 -69 -29 -16 2 -28 6 -28 10 0 4 39 32 88 62 48 30 109 71
136 93 27 21 62 45 77 53 26 13 29 13 40 -8 10 -18 8 -24 -12 -39 -32 -24 -18
-35 23 -19 81 32 138 60 138 69 0 17 -24 19 -59 5 -43 -18 -44 -18 -59 6 -11
19 -7 22 50 51 65 32 184 78 204 79 8 0 8 -11 1 -39z m177 28 c22 -6 55 -28
77 -50 34 -34 39 -46 39 -85 0 -43 -1 -44 -17 -29 -21 21 -102 57 -113 50 -4
-3 -11 6 -14 20 -8 31 -39 48 -82 43 -39 -5 -45 13 -17 44 18 21 68 24 127 7z
m59 -179 c49 -31 55 -46 35 -83 -38 -73 -225 -245 -311 -288 -23 -11 -53 -27
-67 -34 -19 -11 -26 -12 -29 -2 -7 25 -53 143 -63 164 -6 13 -9 24 -7 26 2 2
29 18 59 37 95 59 165 104 178 117 7 7 17 13 21 13 4 0 25 18 47 40 48 48 74
50 137 10z m164 -22 c129 -48 202 -127 263 -286 33 -86 33 -85 -68 -80 -98 6
-129 18 -188 75 -21 21 -61 56 -89 78 -27 21 -54 42 -59 46 -5 4 8 33 28 64
21 30 40 71 43 90 3 19 7 35 8 35 2 0 29 -10 62 -22z m679 -170 c5 -7 -12 -28
-42 -54 -64 -56 -52 -75 25 -38 51 24 81 26 81 5 0 -12 -70 -61 -87 -61 -14 0
-43 -28 -43 -42 0 -6 14 -8 38 -4 97 17 107 5 38 -41 -55 -38 -86 -42 -86 -14
0 30 -32 124 -52 153 -23 33 -21 38 39 77 49 33 77 39 89 19z m-1698 -10 c9
-1 11 -9 6 -27 -4 -14 -7 -36 -6 -48 2 -24 2 -30 -1 -138 -2 -75 -11 -80 -70
-40 -39 27 -77 89 -77 126 0 29 44 104 73 124 12 9 31 13 42 10 11 -4 26 -7
33 -7z m922 -67 l64 -59 -22 -48 c-13 -27 -32 -60 -43 -73 l-20 -24 -35 34
c-45 43 -104 123 -104 140 0 16 70 89 85 89 5 0 39 -27 75 -59z m-523 -13 c34
-72 43 -98 43 -128 0 -26 -6 -31 -57 -51 -32 -12 -67 -23 -78 -25 -11 -2 -38
-8 -60 -13 -21 -5 -75 -9 -118 -8 -64 2 -81 6 -92 21 -17 23 -12 124 7 141 7
6 44 18 82 25 38 7 106 28 150 45 45 18 86 33 92 34 6 1 20 -18 31 -41z m1165
-73 c10 -28 18 -70 18 -95 0 -43 -2 -46 -37 -58 -21 -7 -56 -17 -78 -23 -21
-6 -44 -14 -50 -19 -8 -6 -142 -30 -171 -30 -3 0 -2 10 2 23 4 12 7 45 6 73
-1 57 -5 54 93 71 39 7 103 45 140 83 16 17 36 29 44 28 8 -2 23 -26 33 -53z
m-812 -3 c84 -125 209 -216 330 -241 50 -10 55 -10 153 -11 61 -1 68 -3 62
-18 -4 -9 -12 -36 -18 -59 -6 -24 -14 -43 -17 -43 -4 0 -15 -19 -24 -42 -9
-24 -41 -68 -71 -98 -30 -30 -55 -60 -55 -66 0 -7 -7 -14 -15 -18 -22 -8 -18
-36 4 -36 11 0 27 9 35 21 13 18 20 20 63 14 95 -14 262 -121 388 -249 76 -76
98 -106 137 -186 57 -116 78 -198 78 -298 -1 -152 -43 -252 -155 -366 -84 -86
-149 -129 -260 -173 -174 -69 -339 -94 -575 -89 -170 4 -296 32 -420 93 -256
126 -365 299 -363 578 0 105 4 128 27 186 14 36 26 70 26 76 0 5 13 27 30 49
16 21 30 44 30 49 0 22 104 116 120 110 17 -7 80 -21 164 -35 70 -13 179 -16
195 -6 30 19 -1 30 -95 33 -171 5 -321 57 -417 143 l-30 27 29 15 c16 8 58 29
94 47 36 18 72 37 80 42 8 5 35 18 60 30 153 71 250 124 250 136 0 26 -19 19
-354 -148 -98 -49 -182 -87 -186 -84 -4 3 -15 19 -24 37 -9 18 -25 47 -36 64
-41 69 -71 258 -52 329 7 26 13 30 38 27 16 -2 34 -8 39 -12 23 -19 164 -22
233 -5 158 39 320 106 382 156 19 16 40 29 46 29 6 0 17 7 24 15 18 21 22 19
50 -23z m306 -27 c10 -8 37 -20 59 -27 54 -16 52 -15 81 -17 26 -1 26 -2 22
-61 -6 -83 -17 -92 -98 -79 -64 10 -154 42 -178 64 -10 9 -5 24 28 73 44 65
54 71 86 47z"/>
<path d="M2240 2530 c0 -5 9 -10 20 -10 11 0 20 5 20 10 0 6 -9 10 -20 10 -11
0 -20 -4 -20 -10z"/>
<path d="M2078 1975 c-9 -19 -8 -29 6 -50 19 -28 33 -31 60 -10 22 16 25 63 5
76 -27 17 -59 10 -71 -16z"/>
<path d="M2135 1787 c-13 -10 -16 -21 -12 -38 11 -41 23 -52 50 -45 32 8 55
59 37 81 -15 19 -50 19 -75 2z"/>
<path d="M2273 1593 c-16 -6 -17 -45 -1 -61 20 -20 54 -14 66 13 18 38 -20 67
-65 48z"/>
<path d="M935 1568 c-29 -16 -33 -26 -40 -88 -4 -30 -11 -73 -17 -95 -10 -38
-15 -72 -17 -124 -1 -23 -2 -24 -76 -17 -59 5 -75 4 -75 -7 0 -7 5 -18 11 -24
8 -8 0 -14 -28 -23 -49 -17 -154 -91 -185 -133 -31 -40 -61 -98 -90 -174 -19
-50 -22 -77 -22 -188 0 -124 8 -188 24 -210 4 -5 10 -23 14 -40 4 -16 14 -37
23 -47 13 -14 13 -17 -4 -21 -10 -3 -56 -9 -103 -12 -103 -9 -150 -26 -150
-54 0 -12 5 -21 10 -21 23 0 8 -18 -20 -23 -25 -6 -30 -11 -30 -36 0 -35 10
-39 95 -40 33 -1 112 -6 175 -12 167 -14 822 -10 940 6 19 3 91 7 160 10 205
8 346 22 373 36 20 11 23 42 5 57 -25 19 -120 32 -241 32 l-122 1 27 20 c32
24 92 119 113 180 39 111 21 299 -40 414 -59 112 -207 233 -319 261 -27 6 -28
8 -12 20 34 24 8 37 -60 29 -35 -3 -68 -4 -73 0 -12 7 9 46 95 175 55 82 74
120 61 120 -2 0 -55 7 -118 15 -169 22 -261 27 -284 13z m220 -259 c3 -4 -2
-20 -12 -37 -21 -36 -44 -42 -160 -41 l-83 1 0 37 c0 21 3 41 7 45 9 9 238 4
248 -5z m35 -107 c0 -4 25 -13 55 -19 49 -11 85 -24 152 -56 13 -5 32 -18 42
-29 11 -10 24 -18 30 -18 16 0 110 -90 117 -113 4 -12 17 -38 30 -57 52 -79
70 -269 35 -372 -27 -79 -45 -110 -87 -151 -50 -48 -89 -66 -155 -69 -54 -3
-79 -12 -79 -28 0 -4 89 -6 198 -4 189 4 353 -9 335 -27 -9 -8 -71 -14 -328
-29 -93 -6 -187 -13 -207 -15 -78 -10 -740 -13 -868 -4 -189 14 -230 19 -205
30 11 4 35 8 53 8 60 2 54 51 -7 53 -48 2 -47 16 1 23 142 21 203 22 238 5 43
-22 222 -52 279 -48 62 5 54 22 -14 31 -136 17 -232 39 -271 62 -42 25 -57 52
-98 175 -31 95 0 344 50 401 8 8 14 21 14 27 0 17 77 102 116 128 102 69 156
83 353 89 91 3 167 8 170 10 8 8 51 6 51 -3z"/>
<path d="M673 583 c-18 -7 -16 -28 3 -47 18 -18 54 -6 54 19 0 12 -31 37 -42
34 -2 0 -9 -3 -15 -6z"/>
<path d="M1318 563 c-12 -13 -14 -23 -7 -36 20 -34 75 -10 67 30 -4 24 -40 28
-60 6z"/>
<path d="M991 551 c-21 -13 -4 -31 30 -31 31 0 41 23 13 34 -20 8 -26 7 -43
-3z"/>
<path d="M1207 313 c-15 -15 -5 -23 28 -23 24 0 35 5 35 15 0 15 -50 22 -63 8z"/>
<path d="M980 285 c0 -11 7 -15 23 -13 12 2 22 8 22 13 0 6 -10 11 -22 13 -16
2 -23 -2 -23 -13z"/>
</g>
</svg>
