<?xml version="1.0" standalone="no"?>
<!DOCTYPE svg PUBLIC "-//W3C//DTD SVG 20010904//EN"
 "http://www.w3.org/TR/2001/REC-SVG-20010904/DTD/svg10.dtd">
<svg version="1.0" xmlns="http://www.w3.org/2000/svg"
 width="400.000000pt" height="400.000000pt" viewBox="0 0 400.000000 400.000000"
 preserveAspectRatio="xMidYMid meet">

<g transform="translate(0.000000,400.000000) scale(0.100000,-0.100000)"
fill="#000000" stroke="none">
<path d="M1590 3492 c-91 -47 -114 -74 -126 -151 -7 -46 -18 -50 -66 -25 -40
21 -51 9 -52 -60 -1 -52 -2 -55 -31 -61 -35 -7 -50 9 -116 118 -39 63 -69 86
-69 52 0 -22 45 -108 64 -124 9 -8 16 -19 16 -25 0 -7 16 -31 35 -53 33 -39
34 -41 16 -57 -9 -9 -22 -16 -27 -16 -8 0 -65 76 -89 119 -17 30 -74 91 -85
91 -40 0 5 -78 107 -187 l42 -45 -24 -21 c-14 -12 -49 -42 -79 -67 -51 -42
-68 -72 -48 -84 5 -3 24 8 43 23 214 178 235 195 244 181 6 -11 -129 -150
-146 -150 -5 0 -9 -5 -9 -11 0 -6 -14 -27 -30 -46 -32 -36 -37 -57 -19 -69 7
-4 24 8 41 27 114 134 238 251 238 224 0 -8 -99 -146 -131 -183 -31 -35 -37
-62 -15 -62 13 0 105 102 149 165 10 14 24 25 30 23 7 -1 37 4 67 11 47 10
239 40 263 41 11 0 33 -57 42 -107 l7 -43 -37 0 c-21 0 -85 -7 -144 -15 -58
-8 -125 -18 -148 -21 -24 -3 -43 -10 -43 -15 0 -23 51 -28 142 -14 51 7 126
18 166 22 l72 9 12 -40 c15 -55 25 -64 44 -44 15 15 15 21 -4 80 -12 34 -26
83 -32 108 -6 25 -13 53 -16 63 -3 10 0 17 8 17 13 0 43 -60 100 -197 28 -68
50 -90 61 -60 4 13 -29 108 -68 195 -28 61 -12 72 21 14 22 -37 62 -86 120
-146 17 -18 33 -39 36 -46 6 -18 38 -6 38 14 0 9 -13 31 -30 49 -32 37 -36 47
-19 47 9 0 42 14 166 72 65 30 113 35 129 13 21 -28 17 -45 -9 -45 -28 0 -158
-39 -171 -51 -6 -5 -23 -9 -38 -9 -21 0 -28 -5 -28 -19 0 -23 25 -34 48 -21
23 13 147 48 197 55 38 7 41 5 56 -27 9 -18 20 -48 24 -66 5 -23 12 -32 23
-30 28 5 25 33 -12 112 -20 42 -36 83 -36 92 0 8 -9 32 -20 54 -24 47 -25 70
-5 70 8 0 15 -5 15 -11 0 -25 122 -259 135 -259 23 0 27 18 11 47 -12 24 -74
152 -84 175 -2 5 1 8 7 8 6 0 17 -12 24 -27 33 -78 148 -209 172 -199 20 7 25
-30 15 -113 -11 -92 -19 -121 -53 -186 -51 -99 -183 -202 -283 -221 -19 -3
-34 -10 -34 -15 0 -5 -9 -9 -20 -9 -12 0 -34 -7 -49 -15 -16 -8 -31 -12 -34
-9 -3 3 -24 0 -48 -6 -23 -6 -58 -13 -78 -15 -20 -2 -70 -10 -111 -18 -41 -8
-94 -15 -117 -16 -178 -7 -193 -6 -193 4 0 6 10 21 23 33 13 12 29 38 37 57
12 31 21 37 69 51 80 22 103 33 98 47 -3 8 -20 11 -50 9 l-47 -3 7 33 c3 18
12 45 20 61 12 24 12 28 -1 33 -24 9 -33 -2 -60 -74 -41 -104 -77 -136 -88
-78 -1 11 -9 21 -15 24 -21 6 -27 -27 -14 -78 11 -43 10 -50 -10 -84 l-21 -37
-62 7 c-33 3 -90 13 -126 20 -36 8 -77 16 -91 18 -14 3 -50 16 -80 29 -30 14
-65 28 -78 32 -38 12 -131 74 -183 123 -88 83 -121 163 -119 290 2 96 18 140
82 217 51 62 81 80 110 65 11 -7 27 -9 35 -6 22 8 2 40 -35 56 -17 6 -48 36
-71 66 -47 62 -77 83 -86 59 -4 -9 11 -35 40 -69 25 -30 46 -58 46 -64 0 -5
-18 -24 -40 -43 -49 -41 -103 -135 -120 -208 -27 -113 12 -266 91 -356 l31
-35 -17 -65 c-10 -43 -14 -81 -9 -110 6 -42 4 -47 -33 -89 -84 -95 -129 -211
-134 -346 -3 -73 15 -209 32 -241 6 -11 -11 -34 -67 -88 -73 -71 -84 -87 -140
-201 -24 -49 -46 -120 -60 -190 -13 -69 -16 -225 -4 -282 15 -80 55 -196 75
-218 8 -9 15 -21 15 -26 0 -20 131 -153 187 -190 71 -47 237 -129 281 -138 60
-14 32 -21 -91 -24 -67 -1 -137 -6 -156 -10 -41 -9 -64 -38 -41 -52 9 -5 383
-8 924 -7 715 2 910 5 913 14 9 25 -52 36 -322 57 -16 1 -45 3 -62 4 -51 3
-39 15 32 36 170 49 291 132 376 258 33 48 59 90 59 94 0 4 8 26 19 48 59 128
85 300 67 436 -11 77 -49 206 -80 271 -23 49 -137 178 -180 204 -14 9 -15 14
0 63 17 58 29 63 59 28 11 -12 35 -31 53 -40 18 -9 73 -44 122 -76 49 -33 93
-60 98 -60 17 0 75 -49 88 -76 19 -37 18 -43 -13 -57 -54 -23 -52 -52 2 -41
l33 6 12 -59 c7 -32 16 -68 21 -80 4 -13 11 -53 15 -90 9 -91 18 -107 56 -99
24 5 116 46 286 129 33 16 26 46 -42 191 -31 65 -58 123 -59 129 -1 6 10 17
26 24 15 8 27 21 27 29 0 15 -35 20 -44 5 -3 -5 -18 -12 -33 -16 -15 -3 -45
-15 -67 -26 -23 -11 -42 -16 -44 -11 -8 25 -41 77 -54 85 -10 7 -24 5 -44 -6
-16 -9 -39 -21 -51 -28 -27 -14 -60 -2 -142 51 -31 20 -90 58 -131 84 -41 25
-91 60 -111 77 -36 31 -36 33 -42 123 -6 103 -31 179 -82 256 -30 45 -33 54
-23 81 10 29 7 77 -7 126 -6 18 1 27 39 50 63 39 153 129 177 174 71 139 82
287 33 448 -6 22 -5 23 17 18 71 -18 109 -19 109 -5 0 20 -36 35 -106 43 -32
4 -67 9 -77 12 -32 8 -31 -26 2 -72 29 -41 41 -81 22 -73 -5 2 -25 23 -45 47
-41 48 -41 66 -5 146 10 22 21 49 24 60 5 12 9 15 12 8 3 -9 35 -13 110 -13
94 0 104 2 101 18 -3 14 -18 18 -95 22 -50 3 -95 8 -98 12 -4 4 3 28 15 53 17
35 20 49 11 58 -7 7 -14 7 -20 1 -12 -13 -64 -116 -97 -193 -23 -53 -29 -61
-37 -44 -5 12 -1 44 13 93 38 132 42 152 30 164 -13 12 -40 -17 -40 -43 0 -20
-40 -133 -53 -149 -22 -27 -26 7 -8 64 10 32 22 76 25 97 6 32 4 37 -13 37
-16 0 -23 -15 -42 -85 -23 -88 -30 -96 -70 -74 -13 6 -18 17 -15 26 10 25 -14
87 -41 107 -19 14 -44 19 -87 20 -67 1 -100 -16 -130 -67 l-16 -28 -33 34
c-41 44 -108 65 -145 45 -42 -22 -114 -101 -109 -119 4 -15 -5 -18 -64 -21
l-69 -3 0 31 c0 34 16 44 72 44 30 0 50 26 38 49 -4 9 -16 36 -26 61 -35 85
-74 122 -144 134 -24 4 -46 0 -70 -12z m130 -69 c39 -44 65 -102 52 -115 -9
-9 -32 -15 -59 -17 -20 -2 -44 -33 -38 -49 6 -16 -7 -65 -31 -118 -12 -28 -21
-33 -75 -43 -54 -11 -63 -11 -71 3 -5 8 -24 18 -44 22 -26 5 -38 14 -45 32
-15 39 -32 123 -26 128 3 3 24 0 46 -6 40 -11 41 -12 26 -33 -8 -12 -15 -25
-15 -30 0 -22 124 -49 143 -31 14 15 -8 34 -38 34 -39 0 -55 16 -26 25 37 11
38 55 0 55 -22 0 -25 24 -8 83 8 29 21 45 57 68 66 42 110 40 152 -8z m633
-132 c5 -5 12 -32 14 -58 l5 -49 -52 -12 c-57 -13 -70 -10 -70 19 0 14 -7 19
-29 19 -42 0 -46 14 -14 61 l27 41 55 -5 c29 -3 58 -10 64 -16z m-299 -13 c14
-6 28 -18 31 -27 9 -29 9 -101 -1 -111 -5 -5 -37 -12 -71 -16 l-63 -7 0 37 c0
30 -5 38 -26 46 l-25 10 21 28 c39 50 84 63 134 40z m319 -160 c7 -26 1 -38
-18 -38 -18 0 -156 -53 -208 -80 -22 -11 -45 -20 -52 -20 -7 0 -15 -5 -17 -12
-5 -15 -28 -1 -28 17 0 26 60 56 203 101 26 9 52 24 57 35 15 27 56 25 63 -3z
m-302 -54 c-53 -24 -81 -25 -81 -5 0 14 49 29 95 30 l40 0 -54 -25z m-982
-684 c23 -17 66 -43 97 -58 53 -26 55 -28 49 -57 -4 -16 -9 -63 -12 -102 -2
-40 -9 -73 -14 -73 -45 0 -158 101 -184 165 -18 42 -7 155 15 155 4 0 26 -14
49 -30z m1371 -79 c28 -53 -8 -161 -64 -191 -33 -17 -38 -12 -42 50 -2 27 -10
63 -19 79 -8 17 -15 32 -15 35 0 8 61 34 90 39 14 2 28 5 32 6 4 0 12 -8 18
-18z m-1133 -32 c59 -24 70 -27 138 -39 38 -7 86 -12 107 -12 20 1 40 -3 43
-8 10 -16 -15 -80 -53 -137 l-34 -52 -47 5 c-72 7 -194 34 -208 46 -18 15 -16
119 3 168 9 22 18 40 20 40 2 0 16 -5 31 -11z m962 -35 c17 -34 26 -113 17
-148 -5 -21 -15 -26 -64 -36 -31 -6 -77 -18 -102 -25 -25 -8 -102 -17 -171
-20 l-126 -6 -5 98 c-3 54 -4 101 -1 106 2 4 28 7 57 7 61 0 250 26 286 40 28
10 70 18 85 15 6 -1 16 -15 24 -31z m-498 -56 c1 -18 3 -58 5 -88 4 -94 7 -91
-109 -85 -55 3 -102 7 -104 9 -2 2 6 21 19 42 13 21 32 61 44 89 20 50 20 50
75 56 30 3 57 6 62 7 4 1 8 -13 8 -30z m-686 -85 c17 -10 50 -27 75 -37 25
-10 54 -22 65 -27 20 -8 158 -37 229 -48 l39 -6 -60 -90 c-33 -49 -75 -114
-93 -142 -30 -48 -35 -51 -49 -38 -9 9 -34 27 -56 42 -79 53 -136 93 -162 113
-14 11 -34 20 -44 20 -32 0 -21 -29 23 -57 87 -58 112 -76 168 -120 15 -13 32
-23 38 -23 5 0 15 -7 22 -15 7 -8 22 -15 35 -15 22 0 59 48 100 130 10 19 31
51 46 71 16 20 29 41 29 46 0 6 9 18 20 28 11 10 20 23 20 29 0 8 76 10 256 9
141 -1 264 2 273 6 9 5 38 11 66 12 l49 4 12 -40 c8 -28 11 -112 8 -275 -6
-330 14 -481 73 -550 27 -33 67 -40 77 -13 5 12 9 14 18 5 7 -7 25 -12 40 -12
21 0 31 6 38 24 8 22 14 24 44 19 33 -5 35 -3 44 30 10 37 -3 109 -31 163 -33
64 -31 89 9 154 20 33 41 59 45 58 19 -7 110 -101 137 -142 33 -48 72 -161 92
-262 22 -110 -2 -328 -44 -409 -9 -17 -16 -35 -16 -40 0 -26 -94 -166 -146
-219 -45 -44 -83 -70 -162 -108 -56 -27 -113 -51 -125 -52 -12 -2 -30 -6 -39
-10 -73 -26 -191 -47 -343 -61 -157 -14 -395 -12 -500 5 -38 6 -86 13 -105 15
-116 14 -181 35 -320 102 -102 49 -199 114 -241 159 -44 49 -97 145 -126 229
-24 70 -27 95 -28 205 0 238 67 395 238 558 l24 23 12 -28 c29 -70 200 -207
233 -187 19 12 4 31 -47 62 -91 55 -139 113 -188 232 -31 75 -39 295 -11 337
8 12 14 29 14 38 0 24 34 86 81 145 l42 53 36 -40 c20 -22 50 -49 66 -60z
m1440 -119 c22 -74 29 -172 16 -239 -19 -98 -62 -226 -74 -222 -8 2 -12 46
-13 127 -3 131 -18 303 -36 384 -10 46 -9 51 12 68 22 18 22 18 51 -26 16 -24
36 -65 44 -92z m-148 23 c7 -43 5 -51 -12 -53 -124 -17 -124 -17 -135 11 -17
44 -12 50 50 64 33 8 63 18 66 22 10 17 24 -2 31 -44z m16 -110 c3 -8 8 -59
12 -114 l7 -101 -53 -5 c-30 -3 -69 -9 -86 -12 l-33 -7 0 115 0 116 38 6 c20
4 42 8 47 10 25 9 63 4 68 -8z m19 -358 c3 -55 10 -105 17 -112 6 -6 11 -13
11 -17 0 -10 -188 -11 -194 -1 -11 17 -12 192 -1 201 5 5 30 11 55 15 25 4 47
9 49 11 2 2 16 4 31 4 l27 0 5 -101z m693 -49 c8 -16 15 -31 15 -35 0 -11 -23
-4 -51 16 -24 17 -27 24 -18 35 18 22 37 17 54 -16z m157 -54 c9 -13 20 -34
23 -48 6 -22 2 -27 -42 -43 -26 -10 -73 -31 -103 -46 -30 -16 -58 -29 -61 -29
-4 0 -10 17 -13 38 -4 20 -9 44 -12 53 -3 11 11 22 48 39 29 13 71 31 93 42
49 22 46 22 67 -6z m-803 -106 c24 -69 33 -122 23 -132 -10 -10 -14 -7 -50 41
-12 15 -25 22 -35 18 -14 -5 -14 -12 -2 -56 7 -28 10 -53 6 -55 -7 -5 -44 61
-55 97 -4 11 -13 17 -23 15 -15 -3 -17 -13 -15 -58 3 -51 2 -54 -13 -39 -16
16 -55 144 -55 180 0 15 10 19 63 21 142 7 142 7 156 -32z"/>
<path d="M1627 3373 c-16 -16 -6 -43 19 -49 37 -9 51 15 23 39 -23 18 -32 21
-42 10z"/>
<path d="M2244 3259 c-3 -6 0 -17 7 -25 18 -17 44 -2 36 20 -7 18 -33 21 -43
5z"/>
<path d="M1980 3227 c0 -19 10 -27 26 -20 21 8 17 33 -6 33 -11 0 -20 -6 -20
-13z"/>
<path d="M1893 1883 c-7 -3 -13 -20 -13 -39 0 -27 5 -37 25 -46 21 -9 28 -8
45 7 23 21 26 48 8 62 -17 13 -50 21 -65 16z"/>
<path d="M1892 1670 c-26 -24 -28 -47 -6 -78 19 -27 28 -27 65 -1 36 25 37 51
3 78 -33 26 -35 26 -62 1z"/>
<path d="M1909 1443 c-23 -27 -1 -83 33 -83 17 0 48 41 48 64 0 37 -56 50 -81
19z"/>
<path d="M1860 3415 c-14 -38 -12 -71 5 -85 19 -15 25 -2 28 60 2 50 -18 65
-33 25z"/>
<path d="M1942 3428 c-15 -15 -16 -55 -1 -64 19 -11 42 22 35 50 -7 29 -16 32
-34 14z"/>
<path d="M1383 3414 c-7 -18 12 -64 26 -64 14 0 23 36 16 60 -8 24 -33 26 -42
4z"/>
<path d="M2137 3423 c-4 -3 -7 -28 -7 -55 0 -35 4 -48 14 -48 15 0 36 74 28
98 -4 13 -24 16 -35 5z"/>
<path d="M2398 3388 c-3 -24 -1 -47 3 -52 14 -15 38 25 39 62 0 25 -4 32 -19
32 -15 0 -20 -9 -23 -42z"/>
<path d="M1236 3381 c-8 -13 42 -106 57 -106 21 0 18 40 -5 75 -25 36 -43 47
-52 31z"/>
<path d="M2444 3346 c-8 -22 -1 -59 13 -64 19 -6 36 47 22 64 -15 18 -28 18
-35 0z"/>
<path d="M2682 3104 c3 -16 16 -20 91 -28 89 -9 114 -3 98 22 -5 8 -41 15
-100 19 -88 6 -93 5 -89 -13z"/>
<path d="M1655 2995 c-27 -7 -92 -19 -143 -26 -96 -13 -124 -27 -98 -48 11 -9
33 -8 98 4 106 21 119 23 201 31 56 6 67 10 67 25 0 11 -7 19 -17 19 -10 0
-27 2 -38 4 -11 3 -42 -1 -70 -9z"/>
<path d="M2270 2859 c-7 -11 -9 -32 -6 -45 9 -34 62 -34 77 0 24 52 -45 95
-71 45z"/>
<path d="M1372 2848 c-17 -17 -15 -35 9 -59 16 -16 23 -18 35 -8 25 21 14 79
-15 79 -9 0 -22 -5 -29 -12z"/>
<path d="M1695 2810 c-12 -20 11 -31 56 -28 31 2 44 7 44 18 0 19 -89 27 -100
10z"/>
</g>
</svg>
